<mxfile host="app.diagrams.net" modified="2020-12-28T03:17:40.102Z" agent="5.0 (Macintosh; Intel Mac OS X 10_14_4) AppleWebKit/537.36 (KHTML, like Gecko) Chrome/87.0.4280.88 Safari/537.36" etag="7zmWXQ7ZprcFmubQcDkN" version="13.9.5" type="github">
  <diagram id="kgpKYQtTHZ0yAKxKKP6v" name="Page-1">
    <mxGraphModel dx="2066" dy="1131" grid="1" gridSize="10" guides="1" tooltips="1" connect="1" arrows="1" fold="1" page="1" pageScale="1" pageWidth="2339" pageHeight="3300" math="0" shadow="0">
      <root>
        <mxCell id="0" />
        <mxCell id="1" parent="0" />
        <mxCell id="3nuBFxr9cyL0pnOWT2aG-1" value="nova-scheduler" style="shape=umlLifeline;perimeter=lifelinePerimeter;container=1;collapsible=0;recursiveResize=0;rounded=0;shadow=0;strokeWidth=1;" parent="1" vertex="1">
          <mxGeometry x="110" y="80" width="110" height="300" as="geometry" />
        </mxCell>
        <mxCell id="3nuBFxr9cyL0pnOWT2aG-2" value="" style="points=[];perimeter=orthogonalPerimeter;rounded=0;shadow=0;strokeWidth=1;" parent="3nuBFxr9cyL0pnOWT2aG-1" vertex="1">
          <mxGeometry x="50" y="70" width="10" height="190" as="geometry" />
        </mxCell>
        <mxCell id="ZZA_ptB3W81gKYqRbgGu-1" value="self.rpcserver = rpc.get_server()" style="rounded=1;whiteSpace=wrap;html=1;" vertex="1" parent="3nuBFxr9cyL0pnOWT2aG-1">
          <mxGeometry x="-10" y="100" width="120" height="40" as="geometry" />
        </mxCell>
        <mxCell id="3nuBFxr9cyL0pnOWT2aG-5" value="oslo_messaging" style="shape=umlLifeline;perimeter=lifelinePerimeter;container=1;collapsible=0;recursiveResize=0;rounded=0;shadow=0;strokeWidth=1;" parent="1" vertex="1">
          <mxGeometry x="400" y="80" width="100" height="300" as="geometry" />
        </mxCell>
        <mxCell id="3nuBFxr9cyL0pnOWT2aG-6" value="" style="points=[];perimeter=orthogonalPerimeter;rounded=0;shadow=0;strokeWidth=1;" parent="3nuBFxr9cyL0pnOWT2aG-5" vertex="1">
          <mxGeometry x="45" y="70" width="10" height="160" as="geometry" />
        </mxCell>
        <mxCell id="ZZA_ptB3W81gKYqRbgGu-3" style="edgeStyle=orthogonalEdgeStyle;rounded=0;orthogonalLoop=1;jettySize=auto;html=1;" edge="1" parent="1" source="ZZA_ptB3W81gKYqRbgGu-2">
          <mxGeometry relative="1" as="geometry">
            <mxPoint x="185" y="810" as="targetPoint" />
          </mxGeometry>
        </mxCell>
        <mxCell id="ZZA_ptB3W81gKYqRbgGu-2" value="&lt;span&gt;self.rpcserver = rpc.get_server()&lt;/span&gt;" style="rounded=1;whiteSpace=wrap;html=1;" vertex="1" parent="1">
          <mxGeometry x="90" y="540" width="190" height="30" as="geometry" />
        </mxCell>
        <mxCell id="ZZA_ptB3W81gKYqRbgGu-4" value="serializer=RequestContextSerializer()" style="rounded=1;whiteSpace=wrap;html=1;" vertex="1" parent="1">
          <mxGeometry x="220" y="600" width="210" height="30" as="geometry" />
        </mxCell>
        <mxCell id="ZZA_ptB3W81gKYqRbgGu-5" value="access_policy = dispatcher.DefaultRPCAccessPolicy" style="rounded=1;whiteSpace=wrap;html=1;" vertex="1" parent="1">
          <mxGeometry x="220" y="650" width="290" height="30" as="geometry" />
        </mxCell>
        <mxCell id="ZZA_ptB3W81gKYqRbgGu-6" value="messaging.get_rpc_server()" style="rounded=1;whiteSpace=wrap;html=1;" vertex="1" parent="1">
          <mxGeometry x="220" y="700" width="170" height="30" as="geometry" />
        </mxCell>
        <mxCell id="ZZA_ptB3W81gKYqRbgGu-9" style="edgeStyle=orthogonalEdgeStyle;rounded=0;orthogonalLoop=1;jettySize=auto;html=1;" edge="1" parent="1" source="ZZA_ptB3W81gKYqRbgGu-13">
          <mxGeometry relative="1" as="geometry">
            <mxPoint x="675" y="1030" as="targetPoint" />
          </mxGeometry>
        </mxCell>
        <mxCell id="ZZA_ptB3W81gKYqRbgGu-8" value="&lt;span&gt;oslo_messaging.rpc.get_rpc_server()&lt;/span&gt;" style="rounded=1;whiteSpace=wrap;html=1;" vertex="1" parent="1">
          <mxGeometry x="570" y="530" width="210" height="30" as="geometry" />
        </mxCell>
        <mxCell id="ZZA_ptB3W81gKYqRbgGu-10" value="dispatcher = rpc_dispatcher.RPCDispatcher()" style="rounded=1;whiteSpace=wrap;html=1;" vertex="1" parent="1">
          <mxGeometry x="700" y="650" width="250" height="30" as="geometry" />
        </mxCell>
        <mxCell id="ZZA_ptB3W81gKYqRbgGu-11" value="RPCServer()" style="rounded=1;whiteSpace=wrap;html=1;" vertex="1" parent="1">
          <mxGeometry x="700" y="730" width="170" height="30" as="geometry" />
        </mxCell>
        <mxCell id="ZZA_ptB3W81gKYqRbgGu-17" style="edgeStyle=orthogonalEdgeStyle;rounded=0;orthogonalLoop=1;jettySize=auto;html=1;" edge="1" parent="1" source="ZZA_ptB3W81gKYqRbgGu-12">
          <mxGeometry relative="1" as="geometry">
            <mxPoint x="185" y="1150" as="targetPoint" />
          </mxGeometry>
        </mxCell>
        <mxCell id="ZZA_ptB3W81gKYqRbgGu-12" value="self.rpcserver.start()" style="rounded=1;whiteSpace=wrap;html=1;" vertex="1" parent="1">
          <mxGeometry x="90" y="810" width="190" height="30" as="geometry" />
        </mxCell>
        <mxCell id="ZZA_ptB3W81gKYqRbgGu-15" style="edgeStyle=orthogonalEdgeStyle;rounded=0;orthogonalLoop=1;jettySize=auto;html=1;entryX=1;entryY=0.5;entryDx=0;entryDy=0;" edge="1" parent="1" source="ZZA_ptB3W81gKYqRbgGu-13" target="ZZA_ptB3W81gKYqRbgGu-12">
          <mxGeometry relative="1" as="geometry">
            <Array as="points">
              <mxPoint x="580" y="825" />
              <mxPoint x="580" y="825" />
            </Array>
          </mxGeometry>
        </mxCell>
        <mxCell id="ZZA_ptB3W81gKYqRbgGu-13" value="" style="points=[];perimeter=orthogonalPerimeter;rounded=0;shadow=0;strokeWidth=1;" vertex="1" parent="1">
          <mxGeometry x="670" y="585" width="10" height="265" as="geometry" />
        </mxCell>
        <mxCell id="ZZA_ptB3W81gKYqRbgGu-14" style="edgeStyle=orthogonalEdgeStyle;rounded=0;orthogonalLoop=1;jettySize=auto;html=1;" edge="1" parent="1" source="ZZA_ptB3W81gKYqRbgGu-8" target="ZZA_ptB3W81gKYqRbgGu-13">
          <mxGeometry relative="1" as="geometry">
            <mxPoint x="675" y="810" as="targetPoint" />
            <mxPoint x="675" y="560" as="sourcePoint" />
          </mxGeometry>
        </mxCell>
        <mxCell id="ZZA_ptB3W81gKYqRbgGu-19" style="edgeStyle=orthogonalEdgeStyle;rounded=0;orthogonalLoop=1;jettySize=auto;html=1;" edge="1" parent="1" source="ZZA_ptB3W81gKYqRbgGu-18">
          <mxGeometry relative="1" as="geometry">
            <mxPoint x="1105" y="1070" as="targetPoint" />
          </mxGeometry>
        </mxCell>
        <mxCell id="ZZA_ptB3W81gKYqRbgGu-18" value="&lt;span&gt;oslo_messaging.server.MessageHandlingServer&lt;br&gt;&lt;/span&gt;" style="rounded=1;whiteSpace=wrap;html=1;" vertex="1" parent="1">
          <mxGeometry x="960" y="530" width="290" height="30" as="geometry" />
        </mxCell>
        <mxCell id="ZZA_ptB3W81gKYqRbgGu-20" value="start()" style="rounded=1;whiteSpace=wrap;html=1;" vertex="1" parent="1">
          <mxGeometry x="1020" y="870" width="170" height="30" as="geometry" />
        </mxCell>
        <mxCell id="ZZA_ptB3W81gKYqRbgGu-21" value="self.listener = self._create_listener()" style="rounded=1;whiteSpace=wrap;html=1;" vertex="1" parent="1">
          <mxGeometry x="1140" y="930" width="200" height="30" as="geometry" />
        </mxCell>
        <mxCell id="ZZA_ptB3W81gKYqRbgGu-22" value="self.listener.start()" style="rounded=1;whiteSpace=wrap;html=1;" vertex="1" parent="1">
          <mxGeometry x="1140" y="1000" width="200" height="30" as="geometry" />
        </mxCell>
      </root>
    </mxGraphModel>
  </diagram>
</mxfile>
